<?xml version="1.0" ?><!DOCTYPE svg  PUBLIC '-//W3C//DTD SVG 1.1//EN'  'http://www.w3.org/Graphics/SVG/1.1/DTD/svg11.dtd'><svg height="64px" id="icons" style="enable-background:new 0 0 64 64;" version="1.1" viewBox="0 0 64 64" width="64px" x="0px" xml:space="preserve" xmlns="http://www.w3.org/2000/svg" xmlns:xlink="http://www.w3.org/1999/xlink" y="0px"><style type="text/css"><![CDATA[
	.st0{fill:#465860;}
	.st1{fill:none;}
]]></style><g><path class="st0" d="M50.5,7H2.906L9,23.449V57h37V12h4.5c3.032,0,5.5,2.358,5.5,5.391v10C56,30.424,53.532,33,50.5,33H50v5h0.5    C56.29,38,61,33.181,61,27.391v-10C61,11.602,56.29,7,50.5,7z M14,52V22.551L10.094,12H41v9.33c-7.667-1.715-15.333,5.594-23,1.17    c0,1.667,0,3.334,0,5c7.667,4.424,15.333-2.885,23-1.17V52H14z"/><rect class="st1" height="64" width="64"/></g></svg>