<?xml version="1.0" ?><!DOCTYPE svg  PUBLIC '-//W3C//DTD SVG 1.1//EN'  'http://www.w3.org/Graphics/SVG/1.1/DTD/svg11.dtd'><svg height="64px" id="icons" style="enable-background:new 0 0 64 64;" version="1.1" viewBox="0 0 64 64" width="64px" x="0px" xml:space="preserve" xmlns="http://www.w3.org/2000/svg" xmlns:xlink="http://www.w3.org/1999/xlink" y="0px"><style type="text/css"><![CDATA[
	.st0{fill:#465860;}
	.st1{fill:none;}
]]></style><g><path class="st0" d="M57,32H8v5h5.986l7.131,24h22.766l7.131-24H57V32z M40.152,56H24.848l-5.646-19h26.596L40.152,56z"/><path class="st0" d="M32.5,29C40.713,29,49,24.826,49,15.5C49,6.175,40.713,2,32.5,2S16,6.175,16,15.5    C16,24.826,24.287,29,32.5,29z M32.5,6.916c7.272,0,11.614,3.209,11.614,8.584c0,5.297-4.45,8.586-11.614,8.586    c-7.165,0-11.615-3.289-11.615-8.586C20.885,10.125,25.227,6.916,32.5,6.916z"/><path class="st0" d="M31.658,17.314c1.413,0.656,3.127,1.451,5.116,1.451c1.447,0,3.041-0.422,4.769-1.623l-2.285-3.283    c-2.118,1.474-3.486,0.953-5.916-0.174c-2.441-1.133-5.783-2.682-9.885,0.174l2.285,3.283    C27.859,15.667,29.228,16.188,31.658,17.314z"/><rect class="st1" height="64" width="64"/></g></svg>