<?xml version="1.0" ?><!DOCTYPE svg  PUBLIC '-//W3C//DTD SVG 1.1//EN'  'http://www.w3.org/Graphics/SVG/1.1/DTD/svg11.dtd'><svg height="64px" id="icons" style="enable-background:new 0 0 64 64;" version="1.1" viewBox="0 0 64 64" width="64px" x="0px" xml:space="preserve" xmlns="http://www.w3.org/2000/svg" xmlns:xlink="http://www.w3.org/1999/xlink" y="0px"><style type="text/css"><![CDATA[
	.st0{fill:#465860;}
	.st1{fill:none;}
]]></style><g><path class="st0" d="M42.155,44l4.631-15H50v-5H18v5h3.214l4.63,15H42.155z M41.553,29l-3.087,10h-8.933l-3.087-10H41.553z"/><path class="st0" d="M53.091,13.908C47.991,8.809,41.213,6,34.002,6H34C20.126,6,8.667,17,7.169,30h5.039    C13.677,19,22.887,11,34,11c0.001,0,0.001,0,0.001,0c5.876,0,11.399,2.288,15.555,6.443S56,27.124,56,33.001    c0,5.876-2.288,11.401-6.444,15.556C45.4,52.712,39.876,55,34,55c0,0-0.001,0-0.002,0c-6.273,0-11.322-2.188-16.37-7.238    c-1.581-1.58-5.658-5.735-7.645-7.762H18v-5H2v16h5v-6.885c2.53,2.574,5.598,5.688,7.093,7.184C20.071,57.278,26.396,60,33.998,60    H34c0,0,0,0,0.001,0c7.211,0,13.991-2.808,19.091-7.906c5.1-5.1,7.908-11.881,7.908-19.093S58.191,19.008,53.091,13.908z"/><rect class="st1" height="64" width="64"/></g></svg>