<?xml version="1.0" ?><!DOCTYPE svg  PUBLIC '-//W3C//DTD SVG 1.1//EN'  'http://www.w3.org/Graphics/SVG/1.1/DTD/svg11.dtd'><svg height="64px" id="icons" style="enable-background:new 0 0 64 64;" version="1.1" viewBox="0 0 64 64" width="64px" x="0px" xml:space="preserve" xmlns="http://www.w3.org/2000/svg" xmlns:xlink="http://www.w3.org/1999/xlink" y="0px"><style type="text/css"><![CDATA[
	.st0{fill:#465860;}
	.st1{fill:none;}
]]></style><g><path class="st0" d="M32.5,63C19.439,63,11,52.402,11,36S19.439,9,32.5,9C45.562,9,54,19.599,54,36S45.562,63,32.5,63z     M32.5,13.78c-10.279,0-16.665,8.514-16.665,22.22S22.221,58.22,32.5,58.22S49.165,49.707,49.165,36S42.779,13.78,32.5,13.78z"/><path class="st0" d="M30.295,54.06c-0.202-0.375-4.89-9.297-0.039-19.083c3.703-7.469,0.064-14.556,0.027-14.626l4.426-2.327    c0.2,0.381,4.852,9.442,0.027,19.174c-3.678,7.417-0.185,14.216-0.034,14.501L30.295,54.06z"/><rect class="st1" height="64" width="64"/></g></svg>