<?xml version="1.0" ?><!DOCTYPE svg  PUBLIC '-//W3C//DTD SVG 1.1//EN'  'http://www.w3.org/Graphics/SVG/1.1/DTD/svg11.dtd'><svg height="64px" id="icons" style="enable-background:new 0 0 64 64;" version="1.1" viewBox="0 0 64 64" width="64px" x="0px" xml:space="preserve" xmlns="http://www.w3.org/2000/svg" xmlns:xlink="http://www.w3.org/1999/xlink" y="0px"><style type="text/css"><![CDATA[
	.st0{fill:#465860;}
	.st1{fill:none;}
]]></style><g><path class="st0" d="M26,20c1.667,0,3.333,0,5,0c-6.9-5,6.9-10,0-15c-1.667,0-3.333,0-5,0C32.9,10,19.1,15,26,20z"/><path class="st0" d="M36,20c1.667,0,3.333,0,5,0c-6.9-5,6.9-10,0-15c-1.667,0-3.333,0-5,0C42.9,10,29.1,15,36,20z"/><path class="st0" d="M31.971,58.051c-17.506,0-27.6-5.449-27.693-5.501l-2.418,4.377C2.309,57.175,13.073,63,31.971,63    s29.664-5.825,30.113-6.073l-2.412-4.38C59.572,52.602,49.477,58.051,31.971,58.051z"/><path class="st0" d="M13.681,40.396C17.41,52.503,25.464,54,32.065,54c6.487,0,14.376-1.452,18.185-13h3.532    C59.123,41,63,37.425,63,32.5S59.123,24,53.782,24H11l0.224,2.707C11.251,27.026,11.893,34.582,13.681,40.396z M52.666,29h1.116    c1.95,0,4.23,0.917,4.23,3.5s-2.28,3.5-4.23,3.5H51.55C52.1,33.339,52.458,30.766,52.666,29z M47.64,28.99    c-0.327,2.612-0.949,6.65-1.958,9.931c-2.599,8.439-7.137,10.135-13.616,10.135c-6.482,0-11.021-1.695-13.619-10.135    c-1.007-3.273-1.629-7.316-1.956-9.931H47.64z"/><rect class="st1" height="64" width="64"/></g></svg>