<?xml version="1.0" ?><!DOCTYPE svg  PUBLIC '-//W3C//DTD SVG 1.1//EN'  'http://www.w3.org/Graphics/SVG/1.1/DTD/svg11.dtd'><svg height="64px" id="icons" style="enable-background:new 0 0 64 64;" version="1.1" viewBox="0 0 64 64" width="64px" x="0px" xml:space="preserve" xmlns="http://www.w3.org/2000/svg" xmlns:xlink="http://www.w3.org/1999/xlink" y="0px"><style type="text/css"><![CDATA[
	.st0{fill:#465860;}
	.st1{fill:none;}
]]></style><g><rect class="st0" height="22.264" transform="matrix(0.9881 0.1535 -0.1535 0.9881 3.7296 -3.1493)" width="5.001" x="19.76" y="11.447"/><g><path class="st0" d="M47.927,26.556l0.927,5.97C50.76,33.911,52,36.11,52,38.591c0,4.186-3.517,7.591-7.84,7.591     c-1.143,0-2.468-0.18-2.468-0.18l-0.688,1.701C39.46,51.529,35.731,54,31.506,54c-4.227,0-7.956-2.471-9.5-6.297L21.318,46     c0,0-1.39,0.182-2.479,0.182c-4.323,0-7.84-3.405-7.84-7.591c0-2.48,1.24-4.68,3.146-6.065l0.927-5.97     C9.826,28.138,6,32.934,6,38.591c0,6.706,5.373,12.204,12.119,12.571C20.749,55.975,25.83,59,31.506,59     c5.675,0,10.755-3.025,13.386-7.839C51.633,50.788,57,45.293,57,38.591C57,32.934,53.174,28.138,47.927,26.556z"/></g><rect class="st0" height="5.001" transform="matrix(0.1534 0.9882 -0.9882 0.1534 56.8002 -21.1422)" width="22.264" x="29.607" y="20.079"/><rect class="st0" height="20" width="5" x="29" y="21"/><rect class="st1" height="64" width="64"/></g></svg>