<?xml version="1.0" ?><!DOCTYPE svg  PUBLIC '-//W3C//DTD SVG 1.1//EN'  'http://www.w3.org/Graphics/SVG/1.1/DTD/svg11.dtd'><svg height="64px" id="icons" style="enable-background:new 0 0 64 64;" version="1.1" viewBox="0 0 64 64" width="64px" x="0px" xml:space="preserve" xmlns="http://www.w3.org/2000/svg" xmlns:xlink="http://www.w3.org/1999/xlink" y="0px"><style type="text/css"><![CDATA[
	.st0{fill:#465860;}
	.st1{fill:none;}
]]></style><g><circle class="st0" cx="31.5" cy="38.5" r="2.5"/><circle class="st0" cx="25.5" cy="43.5" r="2.5"/><circle class="st0" cx="37.5" cy="43.5" r="2.5"/><circle class="st0" cx="31.5" cy="48.5" r="2.5"/><path class="st0" d="M14,25l4.698,38h25.604L49,25H14z M39.918,58H23.081L19.62,30h23.76L39.918,58z"/><path class="st0" d="M26.972,17.528c2.38-0.681,5.47-1.566,7.336-4.821c2.262,1.271,5.714,3.846,7.417,8.293h5.257    C44.103,10.617,34.219,7.115,33.794,6.969l-2.547-0.872l-0.682,2.604c-0.706,2.694-2.034,3.18-4.97,4.021    c-3.134,0.897-7.373,2.128-9.134,8.278h5.298C22.833,18.715,24.572,18.216,26.972,17.528z"/><rect class="st1" height="64" width="64"/></g></svg>