<?xml version="1.0" ?><!DOCTYPE svg  PUBLIC '-//W3C//DTD SVG 1.1//EN'  'http://www.w3.org/Graphics/SVG/1.1/DTD/svg11.dtd'><svg height="64px" id="icons" style="enable-background:new 0 0 64 64;" version="1.1" viewBox="0 0 64 64" width="64px" x="0px" xml:space="preserve" xmlns="http://www.w3.org/2000/svg" xmlns:xlink="http://www.w3.org/1999/xlink" y="0px"><style type="text/css"><![CDATA[
	.st0{fill:#465860;}
	.st1{fill:none;}
]]></style><g><path class="st0" d="M50.782,33H8l0.224,2.707c0.027,0.319,0.669,7.875,2.457,13.688C14.41,61.503,22.464,63,29.065,63    c6.487,0,14.376-1.452,18.185-13h3.532C56.123,50,60,46.425,60,41.5S56.123,33,50.782,33z M42.682,47.921    c-2.599,8.439-7.137,10.135-13.616,10.135c-6.482,0-11.021-1.695-13.619-10.135c-1.007-3.273-1.629-7.316-1.956-9.931H44.64    C44.312,40.602,43.69,44.641,42.682,47.921z M50.782,45H48.55c0.55-2.661,0.908-5.234,1.116-7h1.116c1.95,0,4.23,0.917,4.23,3.5    S52.732,45,50.782,45z"/><path class="st0" d="M41.228,15.5L28.5,2.772L15.772,15.5L28.5,28.228L41.228,15.5z M28.5,9.843l5.657,5.657L28.5,21.157    L22.843,15.5L28.5,9.843z"/><rect class="st1" height="64" width="64"/></g></svg>