<?xml version="1.0" ?><!DOCTYPE svg  PUBLIC '-//W3C//DTD SVG 1.1//EN'  'http://www.w3.org/Graphics/SVG/1.1/DTD/svg11.dtd'><svg enable-background="new 0 0 64 64" height="64px" id="icons" version="1.1" viewBox="0 0 64 64" width="64px" x="0px" xml:space="preserve" xmlns="http://www.w3.org/2000/svg" xmlns:xlink="http://www.w3.org/1999/xlink" y="0px"><path d="M31.971,58.051c-17.506,0-27.6-5.449-27.693-5.5l-2.418,4.377C2.309,57.176,13.073,63,31.971,63  s29.664-5.824,30.113-6.072l-2.412-4.381C59.572,52.602,49.477,58.051,31.971,58.051z" fill="#465860"/><path d="M13.681,40.396C17.41,52.503,25.464,54,32.065,54c6.487,0,14.376-1.452,18.185-13h3.532  C59.123,41,63,37.426,63,32.5S59.123,24,53.782,24H11l0.224,2.707C11.251,27.025,11.893,34.582,13.681,40.396z M52.666,29h1.116  c1.95,0,4.23,0.916,4.23,3.5s-2.28,3.5-4.23,3.5H51.55C52.1,33.339,52.458,30.766,52.666,29z M47.64,28.99  c-0.327,2.611-0.949,6.65-1.958,9.931c-2.599,8.439-7.137,10.135-13.616,10.135c-6.482,0-11.021-1.695-13.619-10.135  c-1.007-3.273-1.629-7.316-1.956-9.931H47.64z" fill="#465860"/><path d="M17,20c0-3.413,2.713-6.219,6.047-6.219c1.369,0,2.729,0.358,2.729,0.358l0.802-1.669  C27.605,10.33,29.683,9,32,9s4.395,1.33,5.422,3.471l0.802,1.669c0,0,1.544-0.358,2.729-0.358C44.287,13.781,47,16.587,47,20  c0,0.01,4.998,0,4.998,0c0-0.01,0.002-0.02,0.002-0.029c0-6.138-4.904-11.137-10.951-11.189C39.003,5.795,35.67,4,32,4  s-7.003,1.795-9.049,4.781C16.904,8.834,12,13.833,12,19.971c0,0.01,0.002,0.02,0.002,0.029C12.002,20,17,20.01,17,20z" fill="#465860"/><rect fill="none" height="64" width="64"/></svg>